<svg width="721" height="488" viewBox="0 0 721 488" fill="none" xmlns="http://www.w3.org/2000/svg">
<rect width="721" height="60.95" fill="#F0F0F0"/>
<rect y="60.95" width="721" height="60.95" fill="#D80027"/>
<rect y="121.9" width="721" height="60.95" fill="#F0F0F0"/>
<rect y="182.85" width="721" height="60.95" fill="#D80027"/>
<rect y="243.8" width="721" height="60.95" fill="#F0F0F0"/>
<rect y="304.75" width="721" height="60.95" fill="#D80027"/>
<rect y="365.7" width="721" height="60.95" fill="#F0F0F0"/>
<rect y="426.65" width="721" height="60.95" fill="#D80027"/>
<rect width="360.825" height="263.027" fill="#2E52B2"/>
<path d="M53.8378 28L59.6387 45.8535H78.4109L63.2239 56.8875L69.0248 74.741L53.8378 63.7069L38.6507 74.741L44.4516 56.8875L29.2646 45.8535H48.0368L53.8378 28Z" fill="#F0F0F0"/>
<path d="M137.513 28L143.314 45.8535H162.086L146.899 56.8875L152.7 74.741L137.513 63.7069L122.326 74.741L128.127 56.8875L112.94 45.8535H131.712L137.513 28Z" fill="#F0F0F0"/>
<path d="M221.189 28L226.99 45.8535H245.762L230.575 56.8875L236.376 74.741L221.189 63.7069L206.002 74.741L211.803 56.8875L196.616 45.8535H215.388L221.189 28Z" fill="#F0F0F0"/>
<path d="M304.864 28L310.665 45.8535H329.438L314.25 56.8875L320.051 74.741L304.864 63.7069L289.677 74.741L295.478 56.8875L280.291 45.8535H299.063L304.864 28Z" fill="#F0F0F0"/>
<path d="M53.8378 105.676L59.6387 123.529H78.4109L63.2239 134.563L69.0248 152.417L53.8378 141.382L38.6507 152.417L44.4516 134.563L29.2646 123.529H48.0368L53.8378 105.676Z" fill="#F0F0F0"/>
<path d="M137.513 105.676L143.314 123.529H162.086L146.899 134.563L152.7 152.417L137.513 141.382L122.326 152.417L128.127 134.563L112.94 123.529H131.712L137.513 105.676Z" fill="#F0F0F0"/>
<path d="M221.189 105.676L226.99 123.529H245.762L230.575 134.563L236.376 152.417L221.189 141.382L206.002 152.417L211.803 134.563L196.616 123.529H215.388L221.189 105.676Z" fill="#F0F0F0"/>
<path d="M304.864 105.676L310.665 123.529H329.438L314.25 134.563L320.051 152.417L304.864 141.382L289.677 152.417L295.478 134.563L280.291 123.529H299.063L304.864 105.676Z" fill="#F0F0F0"/>
<path d="M53.8378 183.351L59.6387 201.205H78.4109L63.2239 212.239L69.0248 230.092L53.8378 219.058L38.6507 230.092L44.4516 212.239L29.2646 201.205H48.0368L53.8378 183.351Z" fill="#F0F0F0"/>
<path d="M137.513 183.351L143.314 201.205H162.086L146.899 212.239L152.7 230.092L137.513 219.058L122.326 230.092L128.127 212.239L112.94 201.205H131.712L137.513 183.351Z" fill="#F0F0F0"/>
<path d="M221.189 183.351L226.99 201.205H245.762L230.575 212.239L236.376 230.092L221.189 219.058L206.002 230.092L211.803 212.239L196.616 201.205H215.388L221.189 183.351Z" fill="#F0F0F0"/>
<path d="M304.864 183.351L310.665 201.205H329.438L314.25 212.239L320.051 230.092L304.864 219.058L289.677 230.092L295.478 212.239L280.291 201.205H299.063L304.864 183.351Z" fill="#F0F0F0"/>
</svg>
