<svg width="916" height="688" viewBox="0 0 916 688" fill="none" xmlns="http://www.w3.org/2000/svg">
<g clip-path="url(#clip0_84_8)">
<path d="M772.978 264.346C785.084 264.346 794.898 254.532 794.898 242.425C794.898 230.319 785.084 220.505 772.978 220.505C760.872 220.505 751.058 230.319 751.058 242.425C751.058 254.532 760.872 264.346 772.978 264.346Z" fill="#E5DFEC"/>
<path d="M310.81 143.749C328.068 143.749 342.058 129.759 342.058 112.501C342.058 95.2434 328.068 81.2532 310.81 81.2532C293.552 81.2532 279.562 95.2434 279.562 112.501C279.562 129.759 293.552 143.749 310.81 143.749Z" fill="#E5DFEC"/>
<path d="M252.978 149.346C265.084 149.346 274.898 139.532 274.898 127.425C274.898 115.319 265.084 105.505 252.978 105.505C240.872 105.505 231.058 115.319 231.058 127.425C231.058 139.532 240.872 149.346 252.978 149.346Z" fill="#E5DFEC"/>
<path d="M791.337 487.549C774.017 506.512 773.388 534.134 773.388 534.134C773.388 534.134 800.84 531.012 818.161 512.05C835.481 493.088 836.109 465.466 836.109 465.466C836.109 465.466 808.657 468.587 791.337 487.549Z" fill="#492770"/>
<path d="M801.121 493.006C795.88 518.147 773.849 534.821 773.849 534.821C773.849 534.821 760.316 510.733 765.556 485.592C770.797 460.451 792.828 443.777 792.828 443.777C792.828 443.777 806.362 467.865 801.121 493.006Z" fill="#7B42BD"/>
<path d="M769.626 233.581C774.596 233.581 778.626 237.61 778.626 242.581V529.05C778.626 531.735 777.427 534.279 775.358 535.989L681.218 613.757C679.605 615.089 677.578 615.818 675.486 615.818H176.626C171.655 615.818 167.626 611.789 167.626 606.818V307.417C167.626 303.892 169.683 300.692 172.89 299.229L314.976 234.393C316.149 233.858 317.423 233.581 318.712 233.581H769.626Z" fill="#492770"/>
<path opacity="0.1" d="M777.843 233.581C778.275 233.581 778.626 233.932 778.626 234.364C778.626 234.625 778.496 234.869 778.278 235.015L742.762 258.788L678.975 301.462C678.811 301.572 678.617 301.631 678.419 301.631H172.226C171.152 301.631 170.833 300.167 171.811 299.721L316.558 233.671C316.688 233.612 316.83 233.581 316.973 233.581H777.843Z" fill="#202124"/>
<path opacity="0.1" d="M778.626 233.581V533.289L678.723 615.818L679.447 300.907L742.762 258.788L778.047 233.581H778.626Z" fill="#202124"/>
<path d="M643.974 274.845H332.683L355.849 261.814H654.11L643.974 274.845Z" fill="#251439"/>
<path d="M912.64 632.12C912.64 632.12 918.675 657.356 913.189 658.453C907.703 659.55 880.821 659.196 874.237 660.293C867.654 661.391 853.939 659.55 853.939 654.613C853.939 649.675 868.203 646.384 868.203 646.384C868.203 646.384 888.501 635.411 889.05 634.863C889.599 634.314 912.64 632.12 912.64 632.12Z" fill="#251439"/>
<path d="M907.703 483.445C907.703 483.445 906.057 502.098 906.057 503.743C906.057 505.389 907.703 531.174 906.057 532.271C904.411 533.369 907.154 541.049 907.154 543.792C907.154 546.535 915.932 592.071 913.738 609.626C911.543 627.182 917.029 625.536 915.384 627.182C913.738 628.828 913.738 628.828 913.738 632.12C913.738 635.411 896.182 638.154 896.182 638.154L876.98 516.91L886.856 480.702L907.703 483.445Z" fill="#575A89"/>
<path opacity="0.1" d="M907.703 483.445C907.703 483.445 906.057 502.098 906.057 503.743C906.057 505.389 907.703 531.174 906.057 532.271C904.411 533.369 907.154 541.049 907.154 543.792C907.154 546.535 915.932 592.071 913.738 609.626C911.543 627.182 917.029 625.536 915.384 627.182C913.738 628.828 913.738 628.828 913.738 632.12C913.738 635.411 896.182 638.154 896.182 638.154L876.98 516.91L886.856 480.702L907.703 483.445Z" fill="#202124"/>
<path d="M904.96 639.8C904.96 639.8 910.446 659.55 904.96 660.647C899.474 661.745 872.592 659.391 866.008 660.488C859.425 661.585 845.709 661.745 845.709 656.807C845.709 651.87 859.973 648.578 859.973 648.578C859.973 648.578 880.272 637.606 880.821 637.057C881.369 636.508 904.96 639.8 904.96 639.8Z" fill="#251439"/>
<path d="M912.64 461.5C912.64 461.5 919.224 477.41 911.543 485.639C903.863 493.868 895.085 510.327 895.085 511.424C895.085 512.521 910.446 621.696 908.252 628.828C906.057 635.96 906.606 640.349 907.154 641.446C907.703 642.543 901.668 648.578 895.085 648.578C888.501 648.578 878.626 643.64 877.529 639.252C876.432 634.863 879.175 597.008 878.626 589.876C878.078 582.744 875.335 572.32 874.237 570.126C873.14 567.931 867.105 565.737 866.008 559.154C864.911 552.57 856.133 468.632 858.876 465.889C861.619 463.146 912.64 461.5 912.64 461.5Z" fill="#575A89"/>
<path d="M870.946 335.318C881.247 335.318 889.599 326.967 889.599 316.665C889.599 306.364 881.247 298.013 870.946 298.013C860.644 298.013 852.293 306.364 852.293 316.665C852.293 326.967 860.644 335.318 870.946 335.318Z" fill="#FFB9B9"/>
<path d="M882.467 325.992C882.467 325.992 878.626 346.291 881.369 348.485C884.112 350.68 860.522 353.971 860.522 353.971C860.522 353.971 857.779 327.089 857.23 324.346C856.682 321.603 882.467 325.992 882.467 325.992Z" fill="#FFB9B9"/>
<path d="M857.23 352.325C857.23 352.325 863.814 333.124 890.696 338.61C890.696 338.61 895.633 340.256 893.987 341.902C892.342 343.548 890.696 343.548 892.89 345.193C895.085 346.839 897.828 345.193 896.182 346.839C894.536 348.485 910.995 358.36 909.897 377.013C908.8 395.666 913.738 422 909.897 426.389C906.057 430.777 912.64 449.979 911.543 453.819C910.446 457.66 918.127 462.597 914.835 464.243C911.543 465.889 852.293 475.764 850.647 464.243C849.001 452.722 850.098 460.951 848.452 458.208C846.807 455.465 846.258 450.528 847.355 444.493C848.452 438.458 851.196 423.645 850.098 418.159C849.001 412.673 850.098 366.589 853.39 361.103C856.682 355.617 857.23 352.325 857.23 352.325Z" fill="#7B42BD"/>
<path d="M868.751 486.188C868.751 486.188 876.98 517.459 866.557 517.459C856.133 517.459 856.682 485.09 856.682 485.09L868.751 486.188Z" fill="#FFB9B9"/>
<path d="M862.716 316.665C862.716 318.256 865.021 319.266 868.592 319.496H868.598C870.112 319.582 871.63 319.553 873.14 319.408C875.422 319.2 876.366 321.345 876.756 324.176C877.392 328.845 876.503 335.39 877.529 336.416C878.945 337.831 889.264 336.41 892.49 333.201C892.992 332.75 893.327 332.143 893.439 331.478C893.777 329.518 894.744 327.722 896.193 326.359C898.097 324.28 900.807 321.976 903.863 318.311C909.349 311.728 903.863 311.179 902.217 306.242C900.571 301.304 897.828 299.658 897.828 296.367C897.828 293.075 885.21 290.332 874.786 290.88C864.362 291.429 866.557 304.596 866.557 304.596C866.557 304.596 865.937 306.187 865.196 308.239C864.194 310.813 863.38 313.457 862.76 316.15C862.735 316.32 862.72 316.493 862.716 316.665Z" fill="#251439"/>
<path opacity="0.1" d="M864.911 360.555C864.911 360.555 883.564 359.457 885.21 386.888C886.855 414.319 886.307 440.104 886.307 440.653C886.307 441.201 878.626 493.32 871.494 493.32C864.362 493.32 858.876 492.223 857.23 489.479C855.584 486.736 861.619 447.236 861.619 447.236C861.619 447.236 864.362 405.541 859.973 392.374C855.584 379.208 855.036 362.201 864.911 360.555Z" fill="#202124"/>
<path d="M862.168 357.812C862.168 357.812 880.821 356.714 882.467 384.145C884.112 411.576 883.564 437.361 883.564 437.91C883.564 438.458 875.883 490.577 868.751 490.577C861.619 490.577 856.133 489.479 854.487 486.736C852.841 483.993 858.876 444.493 858.876 444.493C858.876 444.493 861.619 402.798 857.23 389.631C852.841 376.465 852.293 359.457 862.168 357.812Z" fill="#7B42BD"/>
<path d="M552.861 89.6414C552.861 89.6414 544.732 66.6091 538.861 73.8349C532.99 81.0607 547.894 93.2543 547.894 93.2543L552.861 89.6414Z" fill="#FFB9B9"/>
<path d="M591.248 67.0606L586.358 68.873C586.358 68.873 584.023 79.2542 584.926 81.0607C585.829 82.8671 586.281 81.5123 584.926 85.1252C583.571 88.7381 579.507 98.222 579.055 99.5768C578.603 100.932 552.861 90.9962 552.861 86.0284C552.861 86.0284 547.442 92.351 544.732 93.7059C544.732 93.7059 574.539 115.383 578.603 118.093C582.668 120.803 584.926 119.448 588.539 116.287C592.152 113.125 607.506 86.9317 607.506 86.9317L591.248 67.0606Z" fill="#7B42BD"/>
<path d="M578.152 227.384C578.152 227.384 578.603 232.351 579.507 232.803C580.41 233.255 587.184 244.545 579.507 246.803C571.829 249.061 567.313 248.158 565.507 249.061C563.7 249.964 532.087 251.771 531.636 246.803C531.184 241.835 546.99 240.932 546.99 240.932C546.99 240.932 561.442 231.448 563.7 226.48C565.958 221.513 578.152 227.384 578.152 227.384Z" fill="#251439"/>
<path d="M669.829 236.416C669.829 236.416 680.668 254.932 677.958 257.19C675.249 259.448 648.86 267.677 644.991 268.029C640.023 268.48 636.41 264.416 640.474 262.158C644.539 259.9 653.12 250.416 653.12 247.255V239.125L669.829 236.416Z" fill="#575A89"/>
<path d="M680.216 115.383C680.216 115.383 689.7 127.125 674.797 146.093L649.958 177.706C649.958 177.706 665.313 202.093 665.765 214.738C666.216 227.384 669.378 224.674 670.281 230.093C671.184 235.513 675.249 232.803 672.087 236.867C668.926 240.932 657.184 244.545 653.571 241.384C652.328 240.247 651.358 238.844 650.732 237.28C650.107 235.716 649.842 234.032 649.958 232.351C649.958 230.545 643.636 220.158 643.184 216.996C642.732 213.835 626.023 188.093 626.023 188.093C626.023 188.093 620.603 172.738 626.926 164.158C633.249 155.577 637.427 143.407 637.427 143.407C637.427 143.407 618.797 165.964 605.7 171.383C605.7 171.383 600.732 172.287 601.636 174.545C602.539 176.803 601.636 178.158 600.281 180.416C598.926 182.674 589.442 208.867 586.281 215.642C583.119 222.416 584.474 226.48 580.861 228.738C577.248 230.996 560.99 229.19 560.99 226.932C560.99 224.674 563.248 218.803 564.603 215.642C565.958 212.48 576.797 175.9 575.894 169.577C574.99 163.254 576.345 154.674 583.119 151.061C589.894 147.448 624.216 118.093 626.023 118.093C627.829 118.093 680.216 115.383 680.216 115.383Z" fill="#251439"/>
<path d="M589.442 44.48C599.918 44.48 608.41 35.9878 608.41 25.5122C608.41 15.0366 599.918 6.5444 589.442 6.5444C578.966 6.5444 570.474 15.0366 570.474 25.5122C570.474 35.9878 578.966 44.48 589.442 44.48Z" fill="#FFB9B9"/>
<path d="M604.797 27.3186C604.797 27.3186 610.668 37.7058 617.894 39.0606C625.12 40.4155 598.926 61.1897 598.926 61.1897C598.926 61.1897 592.603 41.3187 587.184 40.4155C581.764 39.5123 604.797 27.3186 604.797 27.3186Z" fill="#FFB9B9"/>
<path d="M586.281 69.7703C586.281 75.6413 603.894 92.351 603.894 92.351L620.603 106.351C620.603 106.351 621.055 111.319 622.861 111.77C624.668 112.222 626.926 112.222 625.12 114.932C623.313 117.641 618.797 123.512 622.861 124.416C624.087 124.602 625.322 124.72 626.56 124.768C627.644 124.831 628.918 124.89 630.349 124.944C633.691 125.061 637.873 125.138 642.403 125.107C643.69 125.102 645 125.087 646.332 125.061C663.407 124.723 683.188 122.758 681.571 116.287C678.862 105.448 680.668 101.835 674.797 95.9639C668.926 90.0929 659.442 69.7703 659.442 69.7703C659.442 69.7703 640.474 37.7057 624.668 37.7057L621.385 36.8431C619.859 36.4412 618.246 36.5294 616.773 37.0951C615.3 37.6609 614.043 38.6755 613.179 39.9954C610.009 44.8232 605.009 52.0761 602.087 54.4154C597.571 58.0283 596.867 55.4361 596.867 55.4361C596.867 55.4361 586.281 63.8993 586.281 69.7703Z" fill="#7B42BD"/>
<path d="M626.474 138.416C626.474 138.416 613.378 158.738 621.507 162.351C629.636 165.964 634.152 141.125 634.152 141.125L626.474 138.416Z" fill="#FFB9B9"/>
<path d="M601.842 23.3698C601.114 23.2779 600.884 22.3594 600.761 21.6359C600.105 17.7619 597.218 14.0882 593.339 13.4628C591.856 13.2656 590.349 13.3871 588.917 13.8192C586.865 14.3821 584.94 15.33 583.242 16.6122C582.412 17.3714 581.451 17.9746 580.407 18.3928C579.695 18.6018 576.673 19.9454 575.967 20.1727C574.414 20.6725 573.13 22.2974 571.531 21.9757C570.001 21.6679 569.42 19.8208 569.174 18.28C568.614 14.7696 570.623 9.53195 572.621 6.59165C574.137 4.36038 576.702 3.07626 579.267 2.24085C582.272 1.32874 585.36 0.715246 588.485 0.409287C592.704 -0.0889832 597.074 -0.353342 601.117 0.950768C605.16 2.25488 608.842 5.44502 609.597 9.62576C609.754 10.4966 609.783 11.3887 609.976 12.2524C610.446 14.3595 611.84 16.1306 612.653 18.1304C613.24 19.5991 613.512 21.1745 613.453 22.7549C613.393 24.3354 613.003 25.8858 612.308 27.3062C611.182 29.5709 609.224 31.7471 609.646 34.2408L606.161 31.4928C605.658 31.2066 605.267 30.7564 605.056 30.2173C604.844 29.6781 604.824 29.0827 604.998 28.5303L605.505 24.1666C605.68 23.376 605.601 22.5502 605.279 21.8073C603.729 19.1014 603.056 23.5229 601.842 23.3698Z" fill="#251439"/>
<path opacity="0.1" d="M634.603 107.254L630.349 124.944C634.64 125.098 640.316 125.179 646.332 125.061C647.849 120.509 649.299 115.763 650.41 111.319C654.474 95.0607 647.7 70.2219 644.087 58.48C640.474 46.738 631.442 43.5767 631.442 43.5767C627.739 44.879 624.241 46.7039 621.055 48.9961C615.184 53.0606 634.603 107.254 634.603 107.254Z" fill="#202124"/>
<path opacity="0.1" d="M630.991 106.351L626.56 124.768C627.644 124.831 628.918 124.89 630.349 124.944C633.691 125.061 637.873 125.138 642.403 125.107C644.033 120.27 645.609 115.167 646.797 110.416C650.862 94.1575 644.087 69.3187 640.474 57.5767C636.862 45.8348 628.958 58.7057 628.958 58.7057C628.958 58.7057 632.12 51.0283 626.249 55.0928C620.378 59.1574 630.991 106.351 630.991 106.351Z" fill="#202124"/>
<path d="M629.636 42.6735C629.636 42.6735 638.668 45.8348 642.281 57.5768C645.894 69.3187 652.668 94.1575 648.603 110.416C644.539 126.674 635.958 146.996 635.958 146.996C635.958 146.996 627.378 140.674 624.216 142.029L632.797 106.351C632.797 106.351 613.378 52.1574 619.249 48.0929C622.435 45.8007 625.933 43.9758 629.636 42.6735Z" fill="#7B42BD"/>
<path d="M631.601 269.199C633.81 269.199 635.261 266.893 634.305 264.901L512.719 11.5327C512.002 10.0389 510.21 9.40911 508.716 10.1259L305.205 107.787C303.711 108.504 303.081 110.296 303.798 111.79L378.519 267.497C379.018 268.537 380.07 269.199 381.224 269.199H631.601Z" fill="#F2F2F2"/>
<path d="M469.139 111.03L358.174 164.28L361.479 171.167L472.444 117.917L469.139 111.03Z" fill="#492770"/>
<path d="M498.518 172.252L387.553 225.502L390.858 232.389L501.823 179.139L498.518 172.252Z" fill="#492770"/>
<path d="M518.7 75.0068L491.15 88.2275L504.37 115.778L531.92 102.557L518.7 75.0068Z" fill="#492770"/>
<path d="M548.079 136.229L520.529 149.45L533.75 177L561.3 163.779L548.079 136.229Z" fill="#492770"/>
<path d="M520.93 54.9806L519.986 54.6489L519.654 55.5924L508.64 86.931L494.288 81.8866L493.345 81.555L493.013 82.4984L490.92 88.4534L490.589 89.3969L491.532 89.7285L512.762 97.1894L513.705 97.5208L514.037 96.5781L527.495 58.3491L527.827 57.4054L526.884 57.0736L520.93 54.9806Z" fill="#1F7A50" stroke="#F2F2F2" stroke-width="2"/>
<path d="M12.9382 568.87L69.3882 556.812L57.33 500.362L0.87997 512.42L12.9382 568.87Z" fill="#E5DFEC"/>
<path d="M67.8182 485.279C67.8182 485.279 47.084 500.089 53.9954 506.013C60.9068 511.937 74.7296 488.241 74.7296 488.241L67.8182 485.279Z" fill="#FFB9B9"/>
<path d="M163.591 507.988C163.591 507.988 159.641 557.355 158.654 564.267C157.667 571.178 156.679 633.381 154.705 640.292C152.73 647.203 150.755 663.988 150.755 663.988H138.907C138.907 663.988 139.894 633.381 136.932 621.532C133.97 609.684 134.958 577.102 134.958 577.102C134.958 577.102 129.034 518.849 131.996 510.95C134.958 503.051 163.591 507.988 163.591 507.988Z" fill="#FFB9B9"/>
<path d="M147.793 661.026C147.793 661.026 152.73 663.988 152.73 665.963C152.73 667.938 151.742 672.874 152.73 674.849C153.717 676.824 160.629 684.723 156.679 686.697C152.73 688.672 134.958 686.697 134.958 686.697C134.958 686.697 135.945 672.874 136.932 671.887C137.92 670.9 135.945 661.026 135.945 661.026H147.793Z" fill="#251439"/>
<path d="M88.1138 506.778C88.1138 506.778 86.8595 556.287 87.1159 563.264C87.3724 570.241 81.8251 632.203 83.0634 639.284C84.3017 646.364 84.5036 663.264 84.5036 663.264L96.2863 664.508C96.2863 664.508 98.5172 633.965 102.707 622.494C106.896 611.022 109.334 578.516 109.334 578.516C109.334 578.516 121.34 521.206 119.223 513.04C117.107 504.874 88.1138 506.778 88.1138 506.778Z" fill="#FFB9B9"/>
<path d="M87.7603 660.629C87.7603 660.629 82.54 663.057 82.3327 665.02C82.1254 666.984 82.5891 671.997 81.4 673.857C80.2108 675.718 72.5085 682.847 76.2288 685.226C79.949 687.604 97.8303 687.506 97.8303 687.506C97.8303 687.506 98.2993 673.655 97.4211 672.57C96.5429 671.484 99.543 661.873 99.543 661.873L87.7603 660.629Z" fill="#251439"/>
<path d="M149.768 433.937C149.768 433.937 157.667 434.925 160.629 451.709C163.591 468.494 174.451 510.95 165.565 513.912C156.679 516.874 130.021 522.798 129.034 520.823C128.046 518.849 126.072 513.912 126.072 513.912C126.072 513.912 129.034 522.798 125.084 522.798C121.135 522.798 82.6284 516.874 83.6158 513.912C84.6031 510.95 86.5778 489.228 86.5778 489.228C86.5778 489.228 92.5018 452.697 98.4259 446.773C100.14 445.127 101.471 443.123 102.325 440.905C103.178 438.687 103.532 436.308 103.363 433.937H149.768Z" fill="#251439"/>
<path d="M164.578 426.038C164.578 426.038 151.742 423.076 149.768 427.026C147.793 430.975 154.704 436.899 157.666 436.899C160.628 436.899 165.565 433.937 165.565 433.937L164.578 426.038Z" fill="#FFB9B9"/>
<path d="M137.92 342.114C147.735 342.114 155.692 334.157 155.692 324.342C155.692 314.527 147.735 306.57 137.92 306.57C128.104 306.57 120.147 314.527 120.147 324.342C120.147 334.157 128.104 342.114 137.92 342.114Z" fill="#FFB9B9"/>
<path d="M134.958 337.177C134.958 337.177 131.996 351 133.97 351C135.945 351 119.16 359.886 119.16 359.886L106.325 357.912L102.375 351.988C102.375 351.988 123.109 338.165 123.109 330.266C123.109 322.367 134.958 337.177 134.958 337.177Z" fill="#FFB9B9"/>
<path d="M126.072 351C126.072 351 129.033 349.026 130.021 349.026H137.92C138.907 349.026 151.742 351.988 151.742 351.988L159.641 396.418C159.641 396.418 145.818 419.127 155.692 436.899C155.692 436.899 152.73 434.924 138.907 435.912C125.084 436.899 100.401 439.861 99.4132 439.861C98.4259 439.861 98.4259 431.962 99.4132 429.988C100.401 428.013 98.4259 429 98.4259 424.064C98.4259 419.127 95.4639 410.241 95.4639 410.241L81.6411 359.886C81.6411 359.886 99.4132 350.013 102.375 351C105.337 351.988 114.223 354.95 116.198 353.962C118.173 352.975 126.072 351 126.072 351Z" fill="#7B42BD"/>
<path d="M148.78 352.975L151.742 351.988C151.742 351.988 157.666 351 164.578 356.924C171.489 362.848 197.16 380.621 197.16 380.621C197.16 380.621 207.034 388.519 204.072 397.405C201.11 406.292 196.173 428.013 181.363 427.026C181.363 427.026 172.477 438.874 167.54 436.899C162.603 434.925 158.654 427.026 161.616 426.038C164.578 425.051 172.477 415.178 172.477 415.178L162.603 396.418H159.641L148.78 390.494L148.78 352.975Z" fill="#7B42BD"/>
<path d="M89.5398 358.899L81.641 359.886C81.641 359.886 74.7296 362.848 75.717 375.684C76.7043 388.519 69.7929 446.773 72.755 453.684C72.755 453.684 62.8815 487.254 64.8562 488.241C66.8309 489.228 78.679 495.152 77.6917 491.203C76.7043 487.254 88.5525 459.608 88.5525 459.608C88.5525 459.608 102.375 444.798 96.4512 424.064V407.279L89.5398 358.899Z" fill="#7B42BD"/>
<path d="M152.711 341.524L140.159 344.259L138.546 338.078L139.166 344.475L118.918 348.886L118.027 345.475L118.369 349.006L105.4 351.831L102.626 325.199C99.7737 314.271 110.184 302.623 121.112 299.771L125.96 298.506C133.986 296.411 148.576 298.316 150.671 306.342C147.005 320.336 140.754 335.678 152.711 341.524Z" fill="#251439"/>
<path d="M367.632 502.162L346.442 404.954C345.669 401.408 348.157 397.98 351.769 397.616L504.85 382.2C508.768 381.805 512.02 385.185 511.475 389.085L497.588 488.388C497.169 491.389 494.602 493.621 491.572 493.621H454.217C452.88 493.621 451.58 494.062 450.52 494.876L401.011 532.856C396.46 536.346 390.053 532.168 391.411 526.596L394.372 514.457C395.305 510.631 392.408 506.943 388.471 506.943H373.567C370.711 506.943 368.24 504.953 367.632 502.162Z" fill="#7B42BD"/>
</g>
<defs>
<clipPath id="clip0_84_8">
<rect width="914.817" height="687.575" fill="white" transform="translate(0.879883)"/>
</clipPath>
</defs>
</svg>
