<svg width="333" height="81" viewBox="0 0 333 81" fill="none" xmlns="http://www.w3.org/2000/svg">
<path d="M106.106 60.1037V26.7597C106.106 24.413 106.533 22.4077 107.386 20.7437C108.282 19.0797 109.52 17.821 111.098 16.9677C112.72 16.0717 114.597 15.6237 116.73 15.6237C117.84 15.6237 118.821 15.6877 119.674 15.8157C120.528 15.9437 121.21 16.0717 121.722 16.1997V24.7117C121.338 24.6263 120.912 24.541 120.442 24.4557C120.016 24.3703 119.482 24.3277 118.842 24.3277C117.776 24.3277 116.944 24.6477 116.346 25.2877C115.792 25.885 115.514 26.8663 115.514 28.2317V60.1037H106.106ZM121.018 38.3437H101.882V29.7677H121.018V38.3437ZM139.254 60.6797C136.14 60.6797 133.388 60.0183 130.998 58.6957C128.652 57.373 126.817 55.4957 125.494 53.0637C124.214 50.6317 123.574 47.773 123.574 44.4877C123.574 41.245 124.214 38.3863 125.494 35.9117C126.817 33.437 128.652 31.517 130.998 30.1517C133.388 28.7437 136.14 28.0397 139.254 28.0397C142.454 28.0397 145.228 28.765 147.574 30.2157C149.921 31.6663 151.734 33.629 153.014 36.1037C154.294 38.5357 154.934 41.2877 154.934 44.3597C154.934 44.9143 154.913 45.4477 154.87 45.9597C154.828 46.4717 154.785 46.877 154.742 47.1757H130.87V40.5197H147.574L146.486 43.2717C146.486 40.925 145.889 39.005 144.694 37.5117C143.542 36.0183 141.75 35.2717 139.318 35.2717C137.142 35.2717 135.393 35.933 134.07 37.2557C132.79 38.5783 132.15 40.3277 132.15 42.5037V46.0237C132.15 48.3703 132.812 50.205 134.134 51.5277C135.5 52.8077 137.377 53.4477 139.766 53.4477C141.772 53.4477 143.35 53.0423 144.502 52.2317C145.697 51.421 146.7 50.4183 147.51 49.2237L153.846 52.7437C152.481 55.261 150.561 57.2237 148.086 58.6317C145.612 59.997 142.668 60.6797 139.254 60.6797ZM173.442 60.6797C170.327 60.6797 167.575 60.0183 165.186 58.6957C162.839 57.373 161.004 55.4957 159.682 53.0637C158.402 50.6317 157.762 47.773 157.762 44.4877C157.762 41.245 158.402 38.3863 159.682 35.9117C161.004 33.437 162.839 31.517 165.186 30.1517C167.575 28.7437 170.327 28.0397 173.442 28.0397C176.642 28.0397 179.415 28.765 181.762 30.2157C184.108 31.6663 185.922 33.629 187.202 36.1037C188.482 38.5357 189.122 41.2877 189.122 44.3597C189.122 44.9143 189.1 45.4477 189.058 45.9597C189.015 46.4717 188.972 46.877 188.93 47.1757H165.058V40.5197H181.762L180.674 43.2717C180.674 40.925 180.076 39.005 178.882 37.5117C177.73 36.0183 175.938 35.2717 173.506 35.2717C171.33 35.2717 169.58 35.933 168.258 37.2557C166.978 38.5783 166.338 40.3277 166.338 42.5037V46.0237C166.338 48.3703 166.999 50.205 168.322 51.5277C169.687 52.8077 171.564 53.4477 173.954 53.4477C175.959 53.4477 177.538 53.0423 178.69 52.2317C179.884 51.421 180.887 50.4183 181.698 49.2237L188.034 52.7437C186.668 55.261 184.748 57.2237 182.274 58.6317C179.799 59.997 176.855 60.6797 173.442 60.6797ZM206.349 60.8717C203.533 60.8717 201.037 60.189 198.861 58.8237C196.685 57.4157 194.979 55.4743 193.741 52.9997C192.547 50.4823 191.949 47.6237 191.949 44.4237C191.949 41.2237 192.568 38.3863 193.805 35.9117C195.043 33.437 196.749 31.517 198.925 30.1517C201.101 28.7437 203.597 28.0397 206.413 28.0397C209.187 28.0397 211.576 28.6797 213.581 29.9597C215.629 31.197 217.208 33.0317 218.317 35.4637C219.469 37.8957 220.045 40.8823 220.045 44.4237C220.045 47.7943 219.469 50.717 218.317 53.1917C217.165 55.6237 215.565 57.5223 213.517 58.8877C211.469 60.2103 209.08 60.8717 206.349 60.8717ZM208.141 52.1037C210.061 52.1037 211.64 51.3997 212.877 49.9917C214.157 48.541 214.797 46.685 214.797 44.4237C214.797 42.205 214.157 40.3917 212.877 38.9837C211.64 37.533 210.061 36.8077 208.141 36.8077C206.221 36.8077 204.621 37.533 203.341 38.9837C202.104 40.3917 201.485 42.205 201.485 44.4237C201.485 46.685 202.104 48.541 203.341 49.9917C204.621 51.3997 206.221 52.1037 208.141 52.1037ZM216.717 60.1037L214.349 52.1037H214.925V37.5117H214.349V16.5197H223.693V60.1037H216.717ZM239.904 60.9357C237.642 60.9357 235.637 60.509 233.888 59.6557C232.181 58.7597 230.858 57.5223 229.92 55.9437C228.981 54.365 228.512 52.5303 228.512 50.4397C228.512 48.221 229.024 46.3437 230.048 44.8077C231.072 43.229 232.437 42.013 234.144 41.1597C235.893 40.3063 237.834 39.8797 239.968 39.8797C243.082 39.8797 245.6 40.5837 247.52 41.9917C249.44 43.3997 250.72 45.4263 251.36 48.0717L247.328 47.3677V40.0717C247.328 38.9197 246.922 37.917 246.112 37.0637C245.301 36.2103 244 35.7837 242.208 35.7837C241.056 35.7837 239.733 35.933 238.24 36.2317C236.746 36.4877 235.21 36.9997 233.632 37.7677L230.88 31.1117C232.757 30.173 234.762 29.4263 236.896 28.8717C239.072 28.317 241.29 28.0397 243.552 28.0397C246.453 28.0397 248.885 28.5517 250.848 29.5757C252.81 30.5997 254.261 32.0503 255.2 33.9277C256.181 35.805 256.672 37.981 256.672 40.4557V60.1037H249.056L247.2 54.0237L251.36 52.7437C250.677 55.3037 249.376 57.309 247.456 58.7597C245.536 60.2103 243.018 60.9357 239.904 60.9357ZM242.784 54.2797C244.192 54.2797 245.301 53.917 246.112 53.1917C246.965 52.4663 247.392 51.549 247.392 50.4397C247.392 49.245 246.965 48.3063 246.112 47.6237C245.301 46.941 244.192 46.5997 242.784 46.5997C241.376 46.5997 240.266 46.941 239.456 47.6237C238.645 48.3063 238.24 49.245 238.24 50.4397C238.24 51.549 238.645 52.4663 239.456 53.1917C240.266 53.917 241.376 54.2797 242.784 54.2797ZM280.148 60.8717C277.374 60.8717 274.964 60.253 272.916 59.0157C270.91 57.7357 269.353 55.8797 268.244 53.4477C267.134 51.0157 266.58 48.029 266.58 44.4877C266.58 41.0743 267.134 38.1517 268.244 35.7197C269.396 33.245 270.996 31.3463 273.044 30.0237C275.092 28.701 277.481 28.0397 280.212 28.0397C283.07 28.0397 285.566 28.7437 287.7 30.1517C289.876 31.517 291.561 33.437 292.756 35.9117C293.993 38.3863 294.612 41.245 294.612 44.4877C294.612 47.6877 293.993 50.525 292.756 52.9997C291.518 55.4743 289.812 57.4157 287.636 58.8237C285.46 60.189 282.964 60.8717 280.148 60.8717ZM262.868 72.2637V28.8077H269.844L272.212 36.8077H271.636V51.3997H272.212V72.2637H262.868ZM278.42 52.1037C280.34 52.1037 281.918 51.3997 283.156 49.9917C284.436 48.541 285.076 46.7063 285.076 44.4877C285.076 42.2263 284.436 40.3917 283.156 38.9837C281.918 37.533 280.34 36.8077 278.42 36.8077C276.542 36.8077 274.964 37.533 273.684 38.9837C272.404 40.3917 271.764 42.205 271.764 44.4237C271.764 46.685 272.404 48.541 273.684 49.9917C274.964 51.3997 276.542 52.1037 278.42 52.1037ZM316.398 60.8717C313.624 60.8717 311.214 60.253 309.166 59.0157C307.16 57.7357 305.603 55.8797 304.494 53.4477C303.384 51.0157 302.83 48.029 302.83 44.4877C302.83 41.0743 303.384 38.1517 304.494 35.7197C305.646 33.245 307.246 31.3463 309.294 30.0237C311.342 28.701 313.731 28.0397 316.462 28.0397C319.32 28.0397 321.816 28.7437 323.95 30.1517C326.126 31.517 327.811 33.437 329.006 35.9117C330.243 38.3863 330.862 41.245 330.862 44.4877C330.862 47.6877 330.243 50.525 329.006 52.9997C327.768 55.4743 326.062 57.4157 323.886 58.8237C321.71 60.189 319.214 60.8717 316.398 60.8717ZM299.118 72.2637V28.8077H306.094L308.462 36.8077H307.886V51.3997H308.462V72.2637H299.118ZM314.67 52.1037C316.59 52.1037 318.168 51.3997 319.406 49.9917C320.686 48.541 321.326 46.7063 321.326 44.4877C321.326 42.2263 320.686 40.3917 319.406 38.9837C318.168 37.533 316.59 36.8077 314.67 36.8077C312.792 36.8077 311.214 37.533 309.934 38.9837C308.654 40.3917 308.014 42.205 308.014 44.4237C308.014 46.685 308.654 48.541 309.934 49.9917C311.214 51.3997 312.792 52.1037 314.67 52.1037Z" fill="#492770"/>
<path d="M10.8559 64.2303L0.391257 16.2237C0.00951631 14.4725 1.23848 12.7794 3.02182 12.5999L78.6217 4.98643C80.5566 4.79157 82.1628 6.46085 81.8934 8.38681L75.0354 57.4279C74.8282 58.9098 73.5607 60.0124 72.0643 60.0124H53.6164C52.9561 60.0124 52.3143 60.2303 51.7904 60.6321L27.3402 79.3885C25.093 81.1123 21.9285 79.0488 22.5996 76.2973L24.0618 70.3022C24.5226 68.413 23.0919 66.5913 21.1473 66.5913H13.7871C12.3765 66.5913 11.1564 65.6085 10.8559 64.2303Z" fill="#492770"/>
</svg>
