<svg width="333" height="85" viewBox="0 0 333 85" fill="none" xmlns="http://www.w3.org/2000/svg">
<path d="M106.468 60.265V26.921C106.468 24.5744 106.894 22.569 107.748 20.905C108.644 19.241 109.881 17.9824 111.46 17.129C113.081 16.233 114.958 15.785 117.092 15.785C118.201 15.785 119.182 15.849 120.036 15.977C120.889 16.105 121.572 16.233 122.084 16.361V24.873C121.7 24.7877 121.273 24.7024 120.804 24.617C120.377 24.5317 119.844 24.489 119.204 24.489C118.137 24.489 117.305 24.809 116.708 25.449C116.153 26.0464 115.876 27.0277 115.876 28.393V60.265H106.468ZM121.38 38.505H102.244V29.929H121.38V38.505ZM139.616 60.841C136.501 60.841 133.749 60.1797 131.36 58.857C129.013 57.5344 127.178 55.657 125.856 53.225C124.576 50.793 123.936 47.9344 123.936 44.649C123.936 41.4064 124.576 38.5477 125.856 36.073C127.178 33.5984 129.013 31.6784 131.36 30.313C133.749 28.905 136.501 28.201 139.616 28.201C142.816 28.201 145.589 28.9264 147.936 30.377C150.282 31.8277 152.096 33.7904 153.376 36.265C154.656 38.697 155.296 41.449 155.296 44.521C155.296 45.0757 155.274 45.609 155.232 46.121C155.189 46.633 155.146 47.0384 155.104 47.337H131.232V40.681H147.936L146.848 43.433C146.848 41.0864 146.25 39.1664 145.056 37.673C143.904 36.1797 142.112 35.433 139.68 35.433C137.504 35.433 135.754 36.0944 134.432 37.417C133.152 38.7397 132.512 40.489 132.512 42.665V46.185C132.512 48.5317 133.173 50.3664 134.496 51.689C135.861 52.969 137.738 53.609 140.128 53.609C142.133 53.609 143.712 53.2037 144.864 52.393C146.058 51.5824 147.061 50.5797 147.872 49.385L154.208 52.905C152.842 55.4224 150.922 57.385 148.448 58.793C145.973 60.1584 143.029 60.841 139.616 60.841ZM173.803 60.841C170.689 60.841 167.937 60.1797 165.547 58.857C163.201 57.5344 161.366 55.657 160.043 53.225C158.763 50.793 158.123 47.9344 158.123 44.649C158.123 41.4064 158.763 38.5477 160.043 36.073C161.366 33.5984 163.201 31.6784 165.547 30.313C167.937 28.905 170.689 28.201 173.803 28.201C177.003 28.201 179.777 28.9264 182.123 30.377C184.47 31.8277 186.283 33.7904 187.563 36.265C188.843 38.697 189.483 41.449 189.483 44.521C189.483 45.0757 189.462 45.609 189.419 46.121C189.377 46.633 189.334 47.0384 189.291 47.337H165.419V40.681H182.123L181.035 43.433C181.035 41.0864 180.438 39.1664 179.243 37.673C178.091 36.1797 176.299 35.433 173.867 35.433C171.691 35.433 169.942 36.0944 168.619 37.417C167.339 38.7397 166.699 40.489 166.699 42.665V46.185C166.699 48.5317 167.361 50.3664 168.683 51.689C170.049 52.969 171.926 53.609 174.315 53.609C176.321 53.609 177.899 53.2037 179.051 52.393C180.246 51.5824 181.249 50.5797 182.059 49.385L188.395 52.905C187.03 55.4224 185.11 57.385 182.635 58.793C180.161 60.1584 177.217 60.841 173.803 60.841ZM206.711 61.033C203.895 61.033 201.399 60.3504 199.223 58.985C197.047 57.577 195.34 55.6357 194.103 53.161C192.908 50.6437 192.311 47.785 192.311 44.585C192.311 41.385 192.929 38.5477 194.167 36.073C195.404 33.5984 197.111 31.6784 199.287 30.313C201.463 28.905 203.959 28.201 206.775 28.201C209.548 28.201 211.937 28.841 213.943 30.121C215.991 31.3584 217.569 33.193 218.679 35.625C219.831 38.057 220.407 41.0437 220.407 44.585C220.407 47.9557 219.831 50.8784 218.679 53.353C217.527 55.785 215.927 57.6837 213.879 59.049C211.831 60.3717 209.441 61.033 206.711 61.033ZM208.503 52.265C210.423 52.265 212.001 51.561 213.239 50.153C214.519 48.7024 215.159 46.8464 215.159 44.585C215.159 42.3664 214.519 40.553 213.239 39.145C212.001 37.6944 210.423 36.969 208.503 36.969C206.583 36.969 204.983 37.6944 203.703 39.145C202.465 40.553 201.847 42.3664 201.847 44.585C201.847 46.8464 202.465 48.7024 203.703 50.153C204.983 51.561 206.583 52.265 208.503 52.265ZM217.079 60.265L214.711 52.265H215.287V37.673H214.711V16.681H224.055V60.265H217.079ZM240.265 61.097C238.004 61.097 235.999 60.6704 234.249 59.817C232.543 58.921 231.22 57.6837 230.281 56.105C229.343 54.5264 228.873 52.6917 228.873 50.601C228.873 48.3824 229.385 46.505 230.409 44.969C231.433 43.3904 232.799 42.1744 234.505 41.321C236.255 40.4677 238.196 40.041 240.329 40.041C243.444 40.041 245.961 40.745 247.881 42.153C249.801 43.561 251.081 45.5877 251.721 48.233L247.689 47.529V40.233C247.689 39.081 247.284 38.0784 246.473 37.225C245.663 36.3717 244.361 35.945 242.569 35.945C241.417 35.945 240.095 36.0944 238.601 36.393C237.108 36.649 235.572 37.161 233.993 37.929L231.241 31.273C233.119 30.3344 235.124 29.5877 237.257 29.033C239.433 28.4784 241.652 28.201 243.913 28.201C246.815 28.201 249.247 28.713 251.209 29.737C253.172 30.761 254.623 32.2117 255.561 34.089C256.543 35.9664 257.033 38.1424 257.033 40.617V60.265H249.417L247.561 54.185L251.721 52.905C251.039 55.465 249.737 57.4704 247.817 58.921C245.897 60.3717 243.38 61.097 240.265 61.097ZM243.145 54.441C244.553 54.441 245.663 54.0784 246.473 53.353C247.327 52.6277 247.753 51.7104 247.753 50.601C247.753 49.4064 247.327 48.4677 246.473 47.785C245.663 47.1024 244.553 46.761 243.145 46.761C241.737 46.761 240.628 47.1024 239.817 47.785C239.007 48.4677 238.601 49.4064 238.601 50.601C238.601 51.7104 239.007 52.6277 239.817 53.353C240.628 54.0784 241.737 54.441 243.145 54.441ZM280.509 61.033C277.736 61.033 275.325 60.4144 273.277 59.177C271.272 57.897 269.715 56.041 268.605 53.609C267.496 51.177 266.941 48.1904 266.941 44.649C266.941 41.2357 267.496 38.313 268.605 35.881C269.757 33.4064 271.357 31.5077 273.405 30.185C275.453 28.8624 277.843 28.201 280.573 28.201C283.432 28.201 285.928 28.905 288.061 30.313C290.237 31.6784 291.923 33.5984 293.117 36.073C294.355 38.5477 294.973 41.4064 294.973 44.649C294.973 47.849 294.355 50.6864 293.117 53.161C291.88 55.6357 290.173 57.577 287.997 58.985C285.821 60.3504 283.325 61.033 280.509 61.033ZM263.229 72.425V28.969H270.205L272.573 36.969H271.997V51.561H272.573V72.425H263.229ZM278.781 52.265C280.701 52.265 282.28 51.561 283.517 50.153C284.797 48.7024 285.437 46.8677 285.437 44.649C285.437 42.3877 284.797 40.553 283.517 39.145C282.28 37.6944 280.701 36.969 278.781 36.969C276.904 36.969 275.325 37.6944 274.045 39.145C272.765 40.553 272.125 42.3664 272.125 44.585C272.125 46.8464 272.765 48.7024 274.045 50.153C275.325 51.561 276.904 52.265 278.781 52.265ZM316.759 61.033C313.986 61.033 311.575 60.4144 309.527 59.177C307.522 57.897 305.965 56.041 304.855 53.609C303.746 51.177 303.191 48.1904 303.191 44.649C303.191 41.2357 303.746 38.313 304.855 35.881C306.007 33.4064 307.607 31.5077 309.655 30.185C311.703 28.8624 314.093 28.201 316.823 28.201C319.682 28.201 322.178 28.905 324.311 30.313C326.487 31.6784 328.173 33.5984 329.367 36.073C330.605 38.5477 331.223 41.4064 331.223 44.649C331.223 47.849 330.605 50.6864 329.367 53.161C328.13 55.6357 326.423 57.577 324.247 58.985C322.071 60.3504 319.575 61.033 316.759 61.033ZM299.479 72.425V28.969H306.455L308.823 36.969H308.247V51.561H308.823V72.425H299.479ZM315.031 52.265C316.951 52.265 318.53 51.561 319.767 50.153C321.047 48.7024 321.687 46.8677 321.687 44.649C321.687 42.3877 321.047 40.553 319.767 39.145C318.53 37.6944 316.951 36.969 315.031 36.969C313.154 36.969 311.575 37.6944 310.295 39.145C309.015 40.553 308.375 42.3664 308.375 44.585C308.375 46.8464 309.015 48.7024 310.295 50.153C311.575 51.561 313.154 52.265 315.031 52.265Z" fill="#492770"/>
<path d="M11.2174 64.3916L0.752721 16.3851C0.37098 14.6339 1.59995 12.9408 3.38328 12.7612L78.9832 5.1478C80.9181 4.95295 82.5242 6.62223 82.2549 8.54819L75.3969 57.5893C75.1897 59.0712 73.9221 60.1738 72.4258 60.1738H53.9778C53.3176 60.1738 52.6757 60.3916 52.1519 60.7935L27.7016 79.5499C25.4545 81.2737 22.29 79.2102 22.9611 76.4587L24.4233 70.4636C24.8841 68.5743 23.4534 66.7527 21.5087 66.7527H14.1486C12.7379 66.7527 11.5178 65.7699 11.2174 64.3916Z" fill="#492770"/>
</svg>
