<svg width="341" height="273" viewBox="0 0 341 273" fill="none" xmlns="http://www.w3.org/2000/svg">
<path d="M170.5 272.268C264.389 272.268 340.5 261.913 340.5 249.141C340.5 236.368 264.389 226.013 170.5 226.013C76.6118 226.013 0.500244 236.368 0.500244 249.141C0.500244 261.913 76.6118 272.268 170.5 272.268Z" fill="#E5DFEC"/>
<path d="M172.5 219.141C128.87 219.141 93.5003 183.771 93.5003 140.141C93.5003 96.5101 128.87 61.1406 172.5 61.1406C216.131 61.1406 251.5 96.5101 251.5 140.141C251.5 183.771 216.131 219.141 172.5 219.141Z" fill="#492770"/>
<path d="M184.5 202.141H208.5V245.141H184.5V202.141Z" fill="#492770"/>
<path d="M136.5 202.141H160.5V245.141H136.5V202.141Z" fill="#492770"/>
<path d="M188.5 253.141C177.455 253.141 168.5 249.783 168.5 245.641C168.5 241.498 177.455 238.141 188.5 238.141C199.546 238.141 208.5 241.498 208.5 245.641C208.5 249.783 199.546 253.141 188.5 253.141Z" fill="#492770"/>
<path d="M140.5 252.141C129.455 252.141 120.5 248.783 120.5 244.641C120.5 240.498 129.455 237.141 140.5 237.141C151.546 237.141 160.5 240.498 160.5 244.641C160.5 248.783 151.546 252.141 140.5 252.141Z" fill="#492770"/>
<path d="M170.5 147.141C155.589 147.141 143.5 135.052 143.5 120.141C143.5 105.229 155.589 93.1406 170.5 93.1406C185.412 93.1406 197.5 105.229 197.5 120.141C197.5 135.052 185.412 147.141 170.5 147.141Z" fill="white"/>
<path d="M170.5 129.141C165.53 129.141 161.5 125.111 161.5 120.141C161.5 115.17 165.53 111.141 170.5 111.141C175.471 111.141 179.5 115.17 179.5 120.141C179.5 125.111 175.471 129.141 170.5 129.141Z" fill="#202124"/>
<path d="M249.133 66.6731C255.512 38.1055 235.121 9.23912 203.589 2.19827C172.057 -4.84258 141.324 12.6083 134.945 41.1759C128.566 69.7435 149.463 80.2797 180.996 87.3205C212.528 94.3614 242.754 95.2406 249.133 66.6731Z" fill="#7B42BD"/>
<path d="M98.4059 124.384C78.3504 115.8 64.2767 103.738 66.9714 97.4418C69.6662 91.1458 88.1089 93.0004 108.164 101.584C128.22 110.168 142.294 122.231 139.599 128.527C136.904 134.823 118.461 132.968 98.4059 124.384Z" fill="#492770"/>
<path d="M246.406 177.384C226.35 168.8 212.277 156.738 214.971 150.442C217.666 144.146 236.109 146 256.164 154.584C276.22 163.168 290.294 175.231 287.599 181.527C284.904 187.823 266.461 185.968 246.406 177.384Z" fill="#492770"/>
<path d="M126.5 163.141C126.5 170.873 146.409 186.141 168.5 186.141C190.592 186.141 211.5 171.873 211.5 164.141C211.5 156.409 190.592 158.141 168.5 158.141C146.409 158.141 126.5 155.409 126.5 163.141Z" fill="white"/>
<path d="M177.862 50.466L178.598 34.8946C178.624 34.3265 179.14 33.9086 179.701 34L203.495 37.8748C204.104 37.9739 204.459 38.6174 204.218 39.1855L198.09 53.6515C197.904 54.0887 197.425 54.3225 196.967 54.1996L191.313 52.6847C191.111 52.6305 190.896 52.6446 190.703 52.7247L181.67 56.465C180.839 56.8088 180.039 55.9166 180.471 55.1284L181.411 53.4112C181.707 52.8701 181.418 52.1944 180.823 52.0347L178.567 51.4303C178.135 51.3145 177.841 50.9131 177.862 50.466Z" fill="#492770"/>
</svg>
