<svg width="479" height="375" viewBox="0 0 479 375" fill="none" xmlns="http://www.w3.org/2000/svg">
<path d="M239.5 323.315C333.388 323.315 409.5 312.961 409.5 300.188C409.5 287.415 333.388 277.061 239.5 277.061C145.612 277.061 69.5 287.415 69.5 300.188C69.5 312.961 145.612 323.315 239.5 323.315Z" fill="#E5DFEC"/>
<path d="M241.5 270.188C197.87 270.188 162.5 234.818 162.5 191.188C162.5 147.557 197.87 112.188 241.5 112.188C285.131 112.188 320.5 147.557 320.5 191.188C320.5 234.818 285.131 270.188 241.5 270.188Z" fill="#492770"/>
<path d="M253.5 253.188H277.5V296.188H253.5V253.188Z" fill="#492770"/>
<path d="M205.5 253.188H229.5V296.188H205.5V253.188Z" fill="#492770"/>
<path d="M257.5 304.188C246.454 304.188 237.5 300.83 237.5 296.688C237.5 292.546 246.454 289.188 257.5 289.188C268.546 289.188 277.5 292.546 277.5 296.688C277.5 300.83 268.546 304.188 257.5 304.188Z" fill="#492770"/>
<path d="M209.5 303.188C198.454 303.188 189.5 299.83 189.5 295.688C189.5 291.546 198.454 288.188 209.5 288.188C220.546 288.188 229.5 291.546 229.5 295.688C229.5 299.83 220.546 303.188 209.5 303.188Z" fill="#492770"/>
<path d="M239.5 198.188C224.588 198.188 212.5 186.099 212.5 171.188C212.5 156.276 224.588 144.188 239.5 144.188C254.412 144.188 266.5 156.276 266.5 171.188C266.5 186.099 254.412 198.188 239.5 198.188Z" fill="white"/>
<path d="M239.5 180.188C234.529 180.188 230.5 176.158 230.5 171.188C230.5 166.217 234.529 162.188 239.5 162.188C244.471 162.188 248.5 166.217 248.5 171.188C248.5 176.158 244.471 180.188 239.5 180.188Z" fill="#202124"/>
<path d="M318.133 117.72C324.511 89.1526 304.121 60.2862 272.589 53.2454C241.056 46.2045 210.324 63.6554 203.945 92.223C197.566 120.791 218.463 131.327 249.995 138.368C281.528 145.408 311.754 146.288 318.133 117.72Z" fill="#7B42BD"/>
<path d="M167.406 175.431C147.35 166.848 133.276 154.785 135.971 148.489C138.666 142.193 157.109 144.048 177.164 152.631C197.22 161.215 211.293 173.278 208.599 179.574C205.904 185.87 187.461 184.015 167.406 175.431Z" fill="#492770"/>
<path d="M315.406 228.431C295.35 219.848 281.276 207.785 283.971 201.489C286.666 195.193 305.109 197.048 325.164 205.631C345.22 214.215 359.293 226.278 356.599 232.574C353.904 238.87 335.461 237.015 315.406 228.431Z" fill="#492770"/>
<path d="M195.5 214.188C195.5 221.92 215.409 237.188 237.5 237.188C259.591 237.188 280.5 222.92 280.5 215.188C280.5 207.456 259.591 209.188 237.5 209.188C215.409 209.188 195.5 206.456 195.5 214.188Z" fill="white"/>
</svg>
