<svg width="1120" height="699" viewBox="0 0 1120 699" fill="none" xmlns="http://www.w3.org/2000/svg">
<g clip-path="url(#clip0_91_42)">
<path d="M292.609 426C410.246 426 505.609 330.637 505.609 213C505.609 95.3633 410.246 0 292.609 0C174.972 0 79.6091 95.3633 79.6091 213C79.6091 330.637 174.972 426 292.609 426Z" fill="#E5DFEC"/>
<path d="M0 51.1423C0 128.64 48.6181 191.351 108.701 191.351Z" fill="#492770"/>
<path d="M108.701 191.351C108.701 112.982 162.956 49.567 230.004 49.567Z" fill="#7B42BD"/>
<path d="M39.3843 58.1677C39.3843 131.782 70.3871 191.351 108.701 191.351Z" fill="#7B42BD"/>
<path d="M108.701 191.351C108.701 91.2128 171.411 10.1827 248.909 10.1827Z" fill="#492770"/>
<path opacity="0.2" d="M136.833 211.285C119.429 211.425 96.3938 208.574 91.7569 205.749C88.2256 203.598 86.8185 195.88 86.3476 192.319C86.0216 192.333 85.833 192.339 85.833 192.339C85.833 192.339 86.8094 204.772 91.4463 207.596C96.0832 210.421 119.118 213.272 136.523 213.132C141.546 213.091 143.282 211.304 143.186 208.656C142.489 210.256 140.572 211.255 136.833 211.285Z" fill="#202124"/>
<path d="M198.609 449.94C301.886 449.94 385.609 438.55 385.609 424.5C385.609 410.45 301.886 399.06 198.609 399.06C95.3319 399.06 11.6091 410.45 11.6091 424.5C11.6091 438.55 95.3319 449.94 198.609 449.94Z" fill="#E5DFEC"/>
<path opacity="0.1" d="M198.609 445.859C285.318 445.859 355.609 436.296 355.609 424.5C355.609 412.704 285.318 403.141 198.609 403.141C111.9 403.141 41.6091 412.704 41.6091 424.5C41.6091 436.296 111.9 445.859 198.609 445.859Z" fill="#202124"/>
<path d="M836.609 699C992.906 699 1119.61 681.763 1119.61 660.5C1119.61 639.237 992.906 622 836.609 622C680.313 622 553.609 639.237 553.609 660.5C553.609 681.763 680.313 699 836.609 699Z" fill="#E5DFEC"/>
<path d="M310.609 668.627C404.498 668.627 480.609 658.273 480.609 645.5C480.609 632.727 404.498 622.373 310.609 622.373C216.721 622.373 140.609 632.727 140.609 645.5C140.609 658.273 216.721 668.627 310.609 668.627Z" fill="#E5DFEC"/>
<path d="M462.609 626C552.609 649 725.609 596 744.609 536" stroke="#492770" stroke-width="2" stroke-miterlimit="10"/>
<path d="M309.609 259C309.609 259 439.609 223 447.609 339C455.609 455 340.609 488 430.609 511" stroke="#492770" stroke-width="2" stroke-miterlimit="10"/>
<path d="M184.011 537.283C184.011 537.283 223.084 526.463 225.488 561.328C227.893 596.192 193.329 606.111 220.379 613.024" stroke="#492770" stroke-width="2" stroke-miterlimit="10"/>
<path d="M778.705 563.24L770.827 613.535C770.827 613.535 732.045 634.138 759.314 634.744C786.582 635.35 915.047 634.744 915.047 634.744C915.047 634.744 939.892 634.744 900.504 612.929L892.626 560.21L778.705 563.24Z" fill="#492770"/>
<path opacity="0.1" d="M753.828 634.198C760.021 628.688 770.827 622.946 770.827 622.946L778.705 572.651L892.626 572.758L900.504 622.34C909.689 627.427 915.379 631.327 918.707 634.318C923.766 633.164 929.294 628.875 900.504 612.929L892.626 560.21L778.705 563.24L770.827 613.535C770.827 613.535 738.239 630.85 753.828 634.198Z" fill="#202124"/>
<path d="M1073.64 212.689H596.479C586.512 212.689 578.433 220.768 578.433 230.734V552.163C578.433 562.129 586.512 570.208 596.479 570.208H1073.64C1083.61 570.208 1091.69 562.129 1091.69 552.163V230.734C1091.69 220.768 1083.61 212.689 1073.64 212.689Z" fill="#492770"/>
<path d="M1074.42 231.776H595.703V499.613H1074.42V231.776Z" fill="#202124"/>
<path d="M835.06 226.323C836.733 226.323 838.089 224.966 838.089 223.293C838.089 221.62 836.733 220.263 835.06 220.263C833.386 220.263 832.03 221.62 832.03 223.293C832.03 224.966 833.386 226.323 835.06 226.323Z" fill="#F1F2F3"/>
<path d="M1091.69 520.822V552.163C1091.69 554.533 1091.22 556.879 1090.31 559.069C1089.41 561.258 1088.08 563.248 1086.4 564.924C1084.73 566.599 1082.74 567.929 1080.55 568.835C1078.36 569.742 1076.01 570.209 1073.64 570.208H596.479C594.109 570.209 591.762 569.742 589.572 568.835C587.383 567.929 585.393 566.599 583.718 564.924C582.042 563.248 580.713 561.258 579.806 559.069C578.899 556.879 578.433 554.533 578.433 552.163V520.822H1091.69Z" fill="#492770"/>
<path d="M968.978 667.466V673.526H642.968V668.678L643.417 667.466L651.452 645.651H962.312L968.978 667.466Z" fill="#492770"/>
<path d="M1094.44 661.534C1093.84 664.073 1091.6 666.751 1086.54 669.284C1068.36 678.374 1031.39 666.86 1031.39 666.86C1031.39 666.86 1002.91 662.012 1002.91 649.287C1003.71 648.74 1004.55 648.244 1005.41 647.803C1013.05 643.759 1038.39 633.781 1083.33 648.225C1086.64 649.264 1089.59 651.202 1091.87 653.822C1093.69 655.954 1095.12 658.657 1094.44 661.534Z" fill="#492770"/>
<path opacity="0.1" d="M1094.44 661.534C1072.19 670.06 1052.35 670.696 1032 656.559C1021.73 649.432 1012.41 647.669 1005.41 647.802C1013.05 643.759 1038.39 633.781 1083.33 648.225C1086.64 649.264 1089.59 651.202 1091.87 653.822C1093.69 655.953 1095.12 658.657 1094.44 661.534Z" fill="#202124"/>
<path d="M1066.54 656.559C1070.89 656.559 1074.42 655.473 1074.42 654.135C1074.42 652.796 1070.89 651.711 1066.54 651.711C1062.19 651.711 1058.66 652.796 1058.66 654.135C1058.66 655.473 1062.19 656.559 1066.54 656.559Z" fill="#F1F2F3"/>
<path d="M835.06 557.18C841.418 557.18 846.573 552.026 846.573 545.667C846.573 539.308 841.418 534.154 835.06 534.154C828.701 534.154 823.546 539.308 823.546 545.667C823.546 552.026 828.701 557.18 835.06 557.18Z" fill="#F1F2F3"/>
<path opacity="0.1" d="M968.978 667.466V673.526H642.968V668.678L643.417 667.466H968.978Z" fill="#202124"/>
<path d="M316.609 159H108.609V401H316.609V159Z" fill="#492770"/>
<path d="M337.609 135H87.6091V221H337.609V135Z" fill="#202124"/>
<path d="M337.609 237H87.6091V323H337.609V237Z" fill="#202124"/>
<path d="M337.609 339H87.6091V425H337.609V339Z" fill="#202124"/>
<path opacity="0.4" d="M287.609 150H271.609V166H287.609V150Z" fill="#7B42BD"/>
<path opacity="0.8" d="M310.609 150H294.609V166H310.609V150Z" fill="#7B42BD"/>
<path d="M333.609 150H317.609V166H333.609V150Z" fill="#7B42BD"/>
<path opacity="0.4" d="M287.609 251H271.609V267H287.609V251Z" fill="#7B42BD"/>
<path opacity="0.8" d="M310.609 251H294.609V267H310.609V251Z" fill="#7B42BD"/>
<path d="M333.609 251H317.609V267H333.609V251Z" fill="#7B42BD"/>
<path opacity="0.4" d="M287.609 352H271.609V368H287.609V352Z" fill="#7B42BD"/>
<path opacity="0.8" d="M310.609 352H294.609V368H310.609V352Z" fill="#7B42BD"/>
<path d="M333.609 352H317.609V368H333.609V352Z" fill="#7B42BD"/>
<path d="M316.609 617C360.24 617 395.609 581.63 395.609 538C395.609 494.37 360.24 459 316.609 459C272.979 459 237.609 494.37 237.609 538C237.609 581.63 272.979 617 316.609 617Z" fill="#492770"/>
<path d="M304.609 600H280.609V643H304.609V600Z" fill="#492770"/>
<path d="M352.609 600H328.609V643H352.609V600Z" fill="#492770"/>
<path d="M300.609 651C311.655 651 320.609 647.642 320.609 643.5C320.609 639.358 311.655 636 300.609 636C289.563 636 280.609 639.358 280.609 643.5C280.609 647.642 289.563 651 300.609 651Z" fill="#492770"/>
<path d="M348.609 650C359.655 650 368.609 646.642 368.609 642.5C368.609 638.358 359.655 635 348.609 635C337.563 635 328.609 638.358 328.609 642.5C328.609 646.642 337.563 650 348.609 650Z" fill="#492770"/>
<path d="M318.609 545C333.521 545 345.609 532.912 345.609 518C345.609 503.088 333.521 491 318.609 491C303.697 491 291.609 503.088 291.609 518C291.609 532.912 303.697 545 318.609 545Z" fill="white"/>
<path d="M318.609 527C323.58 527 327.609 522.971 327.609 518C327.609 513.029 323.58 509 318.609 509C313.639 509 309.609 513.029 309.609 518C309.609 522.971 313.639 527 318.609 527Z" fill="#202124"/>
<path d="M239.977 464.532C233.598 435.965 253.988 407.098 285.52 400.058C317.053 393.017 347.786 410.468 354.165 439.035C360.543 467.603 339.646 478.139 308.114 485.18C276.582 492.221 246.355 493.1 239.977 464.532Z" fill="#7B42BD"/>
<path d="M390.704 522.244C410.759 513.66 424.833 501.597 422.138 495.301C419.443 489.005 401.001 490.86 380.945 499.444C360.89 508.028 346.816 520.09 349.511 526.386C352.205 532.682 370.648 530.827 390.704 522.244Z" fill="#492770"/>
<path d="M242.704 575.244C262.759 566.66 276.833 554.597 274.138 548.301C271.443 542.005 253.001 543.86 232.945 552.444C212.89 561.027 198.816 573.09 201.511 579.386C204.205 585.682 222.648 583.827 242.704 575.244Z" fill="#492770"/>
<path d="M362.609 561C362.609 568.732 342.701 584 320.609 584C298.518 584 277.609 569.732 277.609 562C277.609 554.268 298.518 556 320.609 556C342.701 556 362.609 553.268 362.609 561Z" fill="white"/>
<path d="M829.868 550.395L828.073 542.16C828.007 541.86 828.218 541.569 828.524 541.539L841.492 540.233C841.824 540.199 842.1 540.485 842.054 540.816L840.877 549.228C840.842 549.483 840.624 549.672 840.367 549.672H837.203C837.09 549.672 836.979 549.709 836.89 549.778L832.695 552.996C832.31 553.291 831.767 552.937 831.882 552.465L832.133 551.437C832.212 551.113 831.967 550.8 831.633 550.8H830.37C830.128 550.8 829.919 550.632 829.868 550.395Z" fill="#7B42BD"/>
<path opacity="0.2" d="M196.471 291.589L190.892 265.992C190.688 265.058 191.343 264.156 192.294 264.06L232.603 260.001C233.635 259.897 234.492 260.787 234.348 261.814L230.691 287.962C230.581 288.752 229.905 289.34 229.107 289.34H219.271C218.919 289.34 218.577 289.456 218.297 289.67L205.261 299.671C204.062 300.59 202.375 299.49 202.733 298.023L203.513 294.826C203.758 293.819 202.995 292.848 201.959 292.848H198.034C197.282 292.848 196.632 292.324 196.471 291.589Z" fill="#9FA2AE"/>
</g>
<defs>
<clipPath id="clip0_91_42">
<rect width="1119.61" height="699" fill="white"/>
</clipPath>
</defs>
</svg>
