<?xml version="1.0" standalone="no"?>
<!DOCTYPE svg PUBLIC "-//W3C//DTD SVG 20010904//EN"
 "http://www.w3.org/TR/2001/REC-SVG-20010904/DTD/svg10.dtd">
<svg version="1.0" xmlns="http://www.w3.org/2000/svg"
 width="700.000000pt" height="700.000000pt" viewBox="0 0 700.000000 700.000000"
 preserveAspectRatio="xMidYMid meet">
<metadata>
Created by potrace 1.14, written by Peter Selinger 2001-2017
</metadata>
<g transform="translate(0.000000,700.000000) scale(0.100000,-0.100000)"
fill="#000000" stroke="none">
<path d="M6148 6065 c-2 -2 -41 -6 -88 -10 -47 -4 -94 -9 -104 -11 -11 -2 -49
-6 -85 -9 -63 -5 -113 -10 -211 -20 -25 -3 -70 -7 -100 -10 -67 -6 -153 -15
-200 -20 -19 -2 -66 -7 -105 -11 -38 -3 -83 -8 -100 -10 -16 -2 -59 -6 -95 -9
-36 -4 -78 -8 -95 -10 -16 -2 -61 -6 -100 -10 -38 -3 -104 -10 -145 -15 -41
-5 -111 -12 -155 -16 -44 -3 -88 -8 -98 -10 -9 -1 -54 -6 -98 -9 -45 -4 -89
-8 -98 -10 -9 -2 -48 -6 -86 -9 -80 -7 -154 -15 -205 -21 -19 -3 -66 -7 -105
-11 -38 -3 -81 -8 -95 -9 -14 -2 -61 -6 -105 -10 -44 -4 -87 -9 -96 -10 -8 -2
-53 -6 -100 -10 -46 -4 -91 -8 -99 -10 -8 -1 -49 -6 -90 -9 -41 -4 -91 -9
-110 -11 -19 -2 -64 -7 -100 -10 -36 -3 -81 -8 -100 -10 -49 -6 -124 -13 -195
-20 -33 -3 -79 -8 -102 -10 -58 -7 -114 -12 -198 -21 -38 -4 -83 -8 -100 -10
-16 -2 -63 -6 -103 -9 -40 -4 -82 -8 -93 -10 -11 -2 -52 -7 -92 -10 -39 -3
-88 -8 -107 -10 -19 -2 -64 -7 -100 -10 -36 -3 -81 -8 -100 -10 -19 -2 -84 -9
-145 -15 -60 -6 -128 -13 -150 -15 -22 -2 -65 -7 -95 -10 -30 -2 -95 -9 -145
-15 -49 -5 -121 -12 -160 -16 -38 -3 -81 -7 -95 -9 -14 -1 -61 -6 -105 -10
-44 -4 -96 -14 -115 -22 -70 -29 -124 -102 -129 -176 -3 -37 2 -64 34 -202 8
-33 17 -78 21 -100 3 -22 8 -43 10 -46 2 -3 22 -93 45 -200 48 -227 40 -189
78 -364 17 -77 33 -149 35 -160 5 -23 28 -130 56 -255 11 -47 21 -96 24 -110
2 -14 14 -68 26 -120 12 -52 23 -102 25 -110 2 -8 10 -49 19 -90 24 -113 47
-219 136 -625 44 -203 85 -390 90 -415 5 -25 28 -128 50 -230 23 -102 43 -194
45 -205 3 -11 7 -31 10 -45 3 -14 7 -35 10 -48 25 -134 56 -192 122 -234 37
-23 44 -23 364 -28 l326 -5 41 -27 c51 -34 92 -103 96 -160 1 -23 -7 -83 -20
-133 -101 -411 -103 -421 -68 -494 41 -89 146 -137 241 -112 39 11 104 58 538
391 61 47 162 124 225 172 63 49 122 94 130 101 8 7 33 26 55 42 56 43 617
473 635 488 96 78 230 173 259 183 28 10 186 13 711 14 439 0 688 4 713 11 82
22 141 103 152 209 3 30 7 66 10 80 2 14 7 45 10 70 3 25 8 56 10 70 3 14 7
43 10 65 2 22 7 58 10 80 4 22 8 51 10 65 4 27 22 162 30 225 3 22 10 67 15
100 5 33 12 77 14 99 3 21 8 55 11 75 2 20 14 104 25 186 12 83 23 161 25 175
2 14 6 43 9 65 5 42 35 252 41 295 2 14 7 48 10 75 7 53 12 87 19 133 3 15 12
81 21 147 9 66 18 131 20 145 2 14 11 78 20 142 9 65 18 127 20 139 2 12 7 47
10 78 4 31 8 63 10 71 2 8 7 42 11 75 3 33 7 62 9 65 2 3 6 37 10 75 4 39 9
72 10 75 2 3 6 30 10 60 3 30 13 98 20 150 8 52 17 118 21 145 3 28 10 73 14
100 5 28 7 77 6 110 -3 97 -67 172 -163 193 -23 5 -43 8 -45 7z"/>
</g>
</svg>
